<mxfile host="65bd71144e">
    <diagram id="ZRZu4m-9jGLtUO8wtaJp" name="Page-1">
        <mxGraphModel dx="832" dy="403" grid="1" gridSize="10" guides="1" tooltips="1" connect="1" arrows="1" fold="1" page="1" pageScale="1" pageWidth="850" pageHeight="1100" math="0" shadow="0">
            <root>
                <mxCell id="0"/>
                <mxCell id="1" parent="0"/>
                <mxCell id="3" style="edgeStyle=none;html=1;exitX=0.5;exitY=1;exitDx=0;exitDy=0;" edge="1" parent="1" source="2">
                    <mxGeometry relative="1" as="geometry">
                        <mxPoint x="250" y="790" as="targetPoint"/>
                        <mxPoint x="560" y="720" as="sourcePoint"/>
                        <Array as="points">
                            <mxPoint x="410" y="720"/>
                            <mxPoint x="250" y="720"/>
                        </Array>
                    </mxGeometry>
                </mxCell>
                <mxCell id="4" style="edgeStyle=none;html=1;" edge="1" parent="1" source="2">
                    <mxGeometry relative="1" as="geometry">
                        <mxPoint x="640" y="790" as="targetPoint"/>
                        <Array as="points">
                            <mxPoint x="410" y="720"/>
                            <mxPoint x="640" y="720"/>
                        </Array>
                    </mxGeometry>
                </mxCell>
                <mxCell id="2" value="DB" style="ellipse;whiteSpace=wrap;html=1;" vertex="1" parent="1">
                    <mxGeometry x="370" y="570" width="80" height="80" as="geometry"/>
                </mxCell>
                <mxCell id="5" value="email&lt;br&gt;fullName&lt;br&gt;password&lt;br&gt;profilePic" style="rounded=1;whiteSpace=wrap;html=1;" vertex="1" parent="1">
                    <mxGeometry x="190" y="780" width="120" height="60" as="geometry"/>
                </mxCell>
                <mxCell id="6" value="Users&lt;br&gt;" style="text;strokeColor=none;align=center;fillColor=none;html=1;verticalAlign=middle;whiteSpace=wrap;rounded=0;" vertex="1" parent="1">
                    <mxGeometry x="190" y="740" width="80" height="50" as="geometry"/>
                </mxCell>
                <mxCell id="8" value="_id&lt;br&gt;&lt;br&gt;createdAt&lt;br&gt;updatedAt&lt;br&gt;&lt;br&gt;&lt;br&gt;menmber since...." style="text;html=1;align=center;verticalAlign=middle;resizable=0;points=[];autosize=1;strokeColor=none;fillColor=none;" vertex="1" parent="1">
                    <mxGeometry x="50" y="735" width="120" height="110" as="geometry"/>
                </mxCell>
                <mxCell id="9" value="senderId&lt;br&gt;receiverId&lt;br&gt;text&lt;br&gt;image" style="rounded=1;whiteSpace=wrap;html=1;" vertex="1" parent="1">
                    <mxGeometry x="580" y="780" width="120" height="60" as="geometry"/>
                </mxCell>
                <mxCell id="10" value="messages&lt;br&gt;" style="text;html=1;align=center;verticalAlign=middle;resizable=0;points=[];autosize=1;strokeColor=none;fillColor=none;" vertex="1" parent="1">
                    <mxGeometry x="640" y="750" width="80" height="30" as="geometry"/>
                </mxCell>
            </root>
        </mxGraphModel>
    </diagram>
</mxfile>